<svg width="717" height="828" viewBox="0 0 717 828" fill="none" xmlns="http://www.w3.org/2000/svg">
<rect x="12" y="38" width="700" height="789" fill="url(#paint0_linear_606_42)"/>
<g style="mix-blend-mode:luminosity" filter="url(#filter0_f_606_42)">
<path d="M713 712C710 856 721.657 720.697 618 803.5C533.5 871 378 759.495 378 646C378 532.505 443.784 450.628 584.5 465.5C707.5 478.5 713 598.506 713 712Z" fill="url(#paint1_linear_606_42)"/>
</g>
<g style="mix-blend-mode:luminosity" filter="url(#filter1_f_606_42)">
<path d="M34.8467 165.93C-8.4494 98.7082 27.7709 164.89 54.3209 91.4111C75.9641 31.5119 189.145 29.6452 224.462 81.819C259.78 133.993 252.057 194.107 176.408 235.346C110.284 271.392 70.1641 218.104 34.8467 165.93Z" fill="url(#paint2_linear_606_42)"/>
</g>
<rect x="12.5" y="38.5" width="699" height="788" fill="#D9D9D9" fill-opacity="0.04" stroke="#FFFEFE"/>
<defs>
<filter id="filter0_f_606_42" x="374" y="459.755" width="343" height="368.228" filterUnits="userSpaceOnUse" color-interpolation-filters="sRGB">
<feFlood flood-opacity="0" result="BackgroundImageFix"/>
<feBlend mode="normal" in="SourceGraphic" in2="BackgroundImageFix" result="shape"/>
<feGaussianBlur stdDeviation="2" result="effect1_foregroundBlur_606_42"/>
</filter>
<filter id="filter1_f_606_42" x="10.752" y="40.4775" width="237.977" height="210.664" filterUnits="userSpaceOnUse" color-interpolation-filters="sRGB">
<feFlood flood-opacity="0" result="BackgroundImageFix"/>
<feBlend mode="normal" in="SourceGraphic" in2="BackgroundImageFix" result="shape"/>
<feGaussianBlur stdDeviation="2" result="effect1_foregroundBlur_606_42"/>
</filter>
<linearGradient id="paint0_linear_606_42" x1="362" y1="38" x2="362" y2="827" gradientUnits="userSpaceOnUse">
<stop stop-color="#073450"/>
<stop offset="1" stop-color="#1076B6"/>
</linearGradient>
<linearGradient id="paint1_linear_606_42" x1="611.5" y1="457" x2="611.5" y2="868" gradientUnits="userSpaceOnUse">
<stop stop-color="#0D6297"/>
<stop offset="1" stop-color="#042031"/>
</linearGradient>
<linearGradient id="paint2_linear_606_42" x1="165.426" y1="248.478" x2="37.5304" y2="59.5397" gradientUnits="userSpaceOnUse">
<stop stop-color="#0D6297"/>
<stop offset="1" stop-color="#042031"/>
</linearGradient>
</defs>
</svg>
